HIERARCHY
ROOT Hips
{
	OFFSET -3.958830 18.904000 13.208200
	CHANNELS 6 Xposition Yposition Zposition Zrotation Yrotation Xrotation 
	JOINT LHipJoint
	{
		OFFSET 0.000000 0.000000 0.000000
		CHANNELS 3 Zrotation Yrotation Xrotation
		JOINT LeftUpLeg
		{
			OFFSET 1.800000 -1.400000 0.085000
			CHANNELS 3 Zrotation Yrotation Xrotation
			JOINT LeftLeg
			{
				OFFSET 2.215000 -6.000000 0.000000
				CHANNELS 3 Zrotation Yrotation Xrotation
				JOINT LeftFoot
				{
					OFFSET 2.500000 -6.900000 0.000000
					CHANNELS 3 Zrotation Yrotation Xrotation
					JOINT LeftToeBase
					{
						OFFSET 0.200000 -0.500000 1.950000
						CHANNELS 3 Zrotation Yrotation Xrotation
						End Site
						{
							OFFSET 0.000000 0.000000 0.000000
						}
					}
				}
			}
		}
	}
	JOINT RHipJoint
	{
		OFFSET 0.000000 0.000000 0.000000
		CHANNELS 3 Zrotation Yrotation Xrotation
		JOINT RightUpLeg
		{
			OFFSET -1.800000 -1.400000 0.085000
			CHANNELS 3 Zrotation Yrotation Xrotation
			JOINT RightLeg
			{
				OFFSET -2.215000 -6.000000 0.000000
				CHANNELS 3 Zrotation Yrotation Xrotation
				JOINT RightFoot
				{
					OFFSET -2.500000 -6.900000 0.000000
					CHANNELS 3 Zrotation Yrotation Xrotation
					JOINT RightToeBase
					{
						OFFSET -0.200000 -0.500000 1.950000
						CHANNELS 3 Zrotation Yrotation Xrotation
						End Site
						{
							OFFSET 0.000000 0.000000 0.000000
						}
					}
				}
			}
		}
	}
	JOINT LowerBack
	{
		OFFSET 0.000000 0.000000 0.000000
		CHANNELS 3 Zrotation Yrotation Xrotation
		JOINT Spine
		{
			OFFSET -0.087000 1.940000 -0.288900
			CHANNELS 3 Zrotation Yrotation Xrotation
			JOINT Spine1
			{
				OFFSET 0.000000 1.950000 0.060000
				CHANNELS 3 Zrotation Yrotation Xrotation
				JOINT Neck
				{
					OFFSET 0.000000 0.000000 0.000000
					CHANNELS 3 Zrotation Yrotation Xrotation
					JOINT Neck1
					{
						OFFSET 0.000000 1.600000 0.340000
						CHANNELS 3 Zrotation Yrotation Xrotation
						JOINT Head
						{
							OFFSET 0.000000 1.667000 -0.240000
							CHANNELS 3 Zrotation Yrotation Xrotation
							End Site
							{
								OFFSET 0.000000 0.000000 0.000000
							}
						}
					}
				}
				JOINT LeftShoulder
				{
					OFFSET 0.000000 0.000000 0.000000
					CHANNELS 3 Zrotation Yrotation Xrotation
					JOINT LeftArm
					{
						OFFSET 2.700000 1.550000 -0.730000
						CHANNELS 3 Zrotation Yrotation Xrotation
						JOINT LeftForeArm
						{
							OFFSET 5.450000 0.000000 0.000000
							CHANNELS 3 Zrotation Yrotation Xrotation
							JOINT LeftHand
							{
								OFFSET 3.450000 0.000000 0.000000
								CHANNELS 3 Zrotation Yrotation Xrotation
								JOINT LeftHandIndex1
								{
									OFFSET 0.750000 0.000000 0.000000
									CHANNELS 3 Zrotation Yrotation Xrotation
									End Site
									{
										OFFSET 0.000000 0.000000 0.000000
									}
								}
							}
						}
					}
				}
				JOINT RightShoulder
				{
					OFFSET 0.000000 0.000000 0.000000
					CHANNELS 3 Zrotation Yrotation Xrotation
					JOINT RightArm
					{
						OFFSET -2.700000 1.550000 -0.730000
						CHANNELS 3 Zrotation Yrotation Xrotation
						JOINT RightForeArm
						{
							OFFSET -5.450000 0.000000 0.000000
							CHANNELS 3 Zrotation Yrotation Xrotation
							JOINT RightHand
							{
								OFFSET -3.450000 0.000000 0.000000
								CHANNELS 3 Zrotation Yrotation Xrotation
								JOINT RightHandIndex1
								{
									OFFSET -0.750000 0.000000 0.000000
									CHANNELS 3 Zrotation Yrotation Xrotation
									End Site
									{
										OFFSET 0.000000 0.000000 0.000000
									}
								}
							}
						}
					}
				}
			}
		}
	}
}
MOTION
Frames: 11
Frame Time: 0.016667
-0.555530 16.022980 -2.274030 -5.765571 24.048110 -15.441407 -15.055911 12.604596 4.132607 25.654899 -1.323064 -26.379119 -8.604025 11.958807 34.399338 -0.605319 7.991772 1.485979 0.062370 -0.288800 -0.101870 18.246906 -11.893063 1.895060 -11.405733 0.168845 -7.010772 1.992056 -11.079134 43.436887 -1.000051 -7.063506 2.119723 -0.054770 0.247700 -0.065620 -4.469518 0.426878 -8.593675 14.320491 2.294929 21.124130 -11.406714 7.402419 9.491115 4.866001 1.928919 -18.002831 -0.598805 -8.846876 62.267378 11.106320 -14.288910 -17.560800 -23.245006 -25.585289 8.297783 -57.171676 -15.660114 -12.698343 30.655422 -52.533093 -20.992124 -3.274957 2.113553 1.140940 -0.155540 0.060750 0.121170 13.167647 28.688014 16.287300 55.649978 4.610839 -12.369739 94.348823 56.618411 38.045609 2.246440 -1.026686 -0.592170 0.636740 0.361700 -0.315790 
-0.596550 15.980010 -2.289860 -5.692791 24.574914 -15.537464 -15.127446 12.549007 4.266946 25.971973 -1.560479 -27.431988 -8.618666 12.187150 35.531594 -0.576334 8.138994 1.408312 0.116540 -0.215370 -0.055630 18.190294 -11.804899 1.892847 -11.414783 0.278260 -7.380916 2.244023 -11.423151 44.416437 -1.062372 -7.212077 2.056600 -0.025880 0.191990 -0.051960 -4.273315 0.334616 -8.674910 12.761593 2.567046 22.380481 -10.914062 7.678568 8.920361 4.790708 3.016748 -18.329413 1.776066 -10.151185 62.132551 10.734110 -13.880240 -18.577350 -23.826461 -26.811889 8.299761 -54.912348 -15.797558 -12.377684 29.753181 -48.848426 -18.927402 -3.257436 2.180717 1.148370 -0.175990 0.102890 0.123350 13.819645 29.395417 16.510551 55.180979 4.288690 -12.883797 94.943079 56.465353 37.927236 2.253498 -1.050237 -0.558280 0.605550 0.320650 -0.322560 
-0.673060 15.909400 -2.318840 -5.728653 25.644236 -16.170886 -15.245921 12.510144 4.467570 26.559976 -1.962847 -29.039440 -8.223463 12.487078 37.773396 -0.552247 8.446040 1.265624 0.167780 -0.153120 -0.001450 18.093936 -11.623520 1.901898 -11.355348 0.516584 -7.776624 2.771857 -12.110368 46.208028 -1.181665 -7.480717 1.941973 -0.000650 0.134190 -0.034680 -3.943248 0.054672 -8.794199 10.282401 3.052207 25.179127 -9.638590 8.262195 7.967924 4.293884 4.286601 -19.329749 4.339244 -11.924357 63.223876 11.938650 -13.877270 -21.064020 -24.917639 -29.302422 8.417016 -51.503962 -16.416591 -11.639921 28.989190 -42.247357 -16.099226 -3.252649 2.235768 1.201300 -0.217020 0.169550 0.115110 15.881809 31.337663 17.304811 53.623799 2.943277 -14.366329 96.418562 56.883983 38.502889 2.264592 -1.004742 -0.538550 0.600140 0.298290 -0.340130 
-0.766000 15.849230 -2.350670 -5.818325 26.594703 -17.010287 -15.359451 12.518928 4.643882 27.183391 -2.275101 -30.394741 -7.772735 12.679549 39.583174 -0.535125 8.676772 1.149629 0.214650 -0.091940 0.057740 17.997943 -11.410261 1.932626 -11.027612 0.908000 -8.184980 3.264741 -12.701037 47.988666 -1.300787 -7.721693 1.843981 0.023310 0.072480 -0.033410 -3.603811 -0.326017 -8.887676 7.502384 3.784407 28.357569 -8.062954 8.968027 7.104114 3.452961 5.566830 -21.423923 7.044960 -13.596263 65.808048 13.723960 -13.810350 -22.899540 -26.206555 -32.909017 8.951505 -46.868227 -17.189361 -10.002232 27.543115 -32.200634 -12.167313 -3.268460 2.301881 1.258080 -0.263290 0.239470 0.099820 18.883961 34.247900 18.533657 51.028008 1.099735 -16.068613 97.893409 58.621950 40.115341 2.294685 -0.896198 -0.523670 0.605850 0.275550 -0.361130 
-0.862170 15.781530 -2.386450 -5.832093 27.344592 -17.564234 -15.459233 12.495812 4.770767 27.529317 -2.515953 -31.924436 -6.968320 12.782506 41.508990 -0.548182 8.900316 1.038835 0.253610 -0.049220 0.123080 17.930910 -11.171533 1.980242 -10.824576 1.584595 -9.065606 3.971199 -13.438878 50.086903 -1.427703 -8.041857 1.716064 0.048130 0.017520 -0.025830 -3.306330 -0.657123 -8.921568 4.566430 4.721041 31.427777 -6.542386 9.584214 6.066233 2.808466 6.804073 -23.455643 10.202917 -15.617156 67.258418 14.338500 -13.296400 -24.771050 -27.134540 -35.575131 9.403413 -42.619565 -17.602272 -7.991183 25.329256 -23.070491 -8.716219 -3.317313 2.325668 1.322710 -0.297390 0.301390 0.076430 21.129171 36.284935 19.003817 48.222106 0.379980 -16.873097 96.655837 60.122424 40.107634 2.264024 -0.812629 -0.525330 0.617500 0.266570 -0.395940 
-0.958170 15.708460 -2.416470 -5.428318 27.973959 -17.416746 -15.559985 12.410707 4.889830 27.631256 -2.705935 -33.723625 -6.335700 13.009471 43.276798 -0.541208 9.129827 0.937587 0.280360 -0.022640 0.169940 17.884257 -10.887161 2.031584 -11.110738 2.473760 -10.644571 4.903047 -14.356236 52.448385 -1.545702 -8.451725 1.564595 0.063800 -0.017930 -0.016460 -3.010721 -0.986188 -8.930373 1.190168 6.292402 33.746626 -4.383664 10.228624 4.986623 2.178818 7.654489 -24.949030 12.604696 -17.178336 67.324573 14.740670 -12.880620 -25.705360 -26.939487 -37.308615 9.586223 -40.203530 -18.117240 -5.636025 22.637063 -15.254365 -6.025347 -3.382611 2.329264 1.360560 -0.313750 0.338490 0.060140 22.360671 37.493737 19.045732 45.555986 -0.207736 -17.177689 96.364227 59.952170 39.648463 2.187541 -0.819764 -0.524810 0.615960 0.258270 -0.420980 
-1.043850 15.636760 -2.439220 -5.331875 28.516705 -17.127822 -15.622739 12.260962 4.972009 27.936069 -2.739097 -35.372611 -5.645778 13.112036 44.428734 -0.558782 9.278862 0.868335 0.290460 -0.015160 0.203820 17.885308 -10.619313 2.110413 -11.394771 3.331267 -12.368014 6.083671 -15.446407 54.552312 -1.655980 -8.884938 1.414427 0.075650 -0.040110 -0.011440 -2.849082 -1.160715 -8.943433 -1.284202 7.588730 35.453157 -2.881761 10.589486 3.652319 1.714071 8.504679 -25.882239 15.324793 -18.856813 66.622897 14.528310 -12.465670 -26.027130 -26.759838 -38.228465 9.626515 -38.051484 -17.899541 -3.293960 18.517566 -9.401572 -3.923950 -3.467398 2.277516 1.387580 -0.314610 0.357140 0.041040 23.123963 37.802548 18.664973 43.803221 -0.445356 -17.166869 95.806237 58.359886 38.024696 2.086509 -0.874607 -0.535170 0.617370 0.260910 -0.448360 
-1.120750 15.567150 -2.450650 -5.440000 28.909272 -16.501254 -15.682752 12.052819 5.102213 28.598517 -2.608298 -37.167920 -5.306363 13.397051 45.251355 -0.552048 9.455838 0.803592 0.274430 -0.034380 0.207060 17.901108 -10.332013 2.195407 -11.495587 4.157076 -14.382155 7.138821 -16.358628 56.166607 -1.730014 -9.234498 1.305811 0.069490 -0.036190 -0.011430 -2.703767 -1.300174 -9.002126 -3.086706 8.925250 36.378227 -1.374243 11.046986 2.465848 1.332926 8.912321 -26.575910 16.858688 -20.036792 65.964780 14.422520 -12.602330 -25.493640 -26.232371 -38.901973 9.704528 -37.744076 -17.534193 -2.185083 16.136809 -7.247754 -3.127612 -3.514613 2.228058 1.394170 -0.301400 0.355350 0.027800 23.476313 38.163553 18.526366 42.783016 -1.170823 -17.336110 96.688587 56.198247 36.742284 2.010777 -0.920517 -0.547370 0.622990 0.272980 -0.460920 
-1.184190 15.498190 -2.462010 -5.543831 29.390982 -15.720666 -15.714418 11.791561 5.237187 28.973251 -2.556500 -39.199139 -4.765097 13.664893 46.515933 -0.516039 9.648725 0.730943 0.258810 -0.052490 0.220630 17.942200 -10.090363 2.290369 -11.651313 4.888155 -16.212784 8.262219 -17.289491 57.445704 -1.808473 -9.542795 1.198689 0.052830 -0.053130 -0.005350 -2.656680 -1.289314 -9.084094 -3.999666 9.974871 37.255293 -0.625459 11.614398 1.181103 0.957559 9.231375 -27.113250 18.004738 -21.203454 65.249279 14.809960 -12.807580 -25.757650 -25.066596 -39.468408 9.757875 -38.369681 -17.305197 -1.259991 13.491622 -6.221741 -2.573592 -3.525347 2.195194 1.404960 -0.306670 0.371340 0.006580 23.145439 38.381139 18.624735 43.532748 -2.373091 -18.047119 98.265134 54.903097 36.344227 2.009117 -0.925513 -0.544850 0.611720 0.278580 -0.472060 
-1.239220 15.427180 -2.475710 -5.813714 29.687672 -15.108711 -15.740654 11.552979 5.353222 29.485172 -2.352658 -40.912395 -4.283425 13.871593 47.385755 -0.494967 9.797079 0.679645 0.243440 -0.068260 0.224180 17.982550 -9.855654 2.394353 -11.806482 5.577721 -17.811485 9.479758 -18.270404 58.500194 -1.887085 -9.846856 1.105290 0.041440 -0.058330 -0.005200 -2.618012 -1.288098 -9.175000 -4.274110 10.795272 38.072359 -0.179769 12.274041 0.254197 0.709769 9.486921 -27.403071 18.737224 -22.131876 64.400035 15.214050 -13.042930 -26.197540 -24.057611 -39.899498 9.695347 -39.130408 -17.484229 -0.587450 11.337531 -5.723437 -2.237041 -3.530156 2.163791 1.416600 -0.307400 0.379630 -0.005340 22.728447 38.551299 18.842952 44.426728 -3.768064 -18.867342 100.685100 54.005678 36.752917 2.015483 -0.917183 -0.551080 0.612120 0.284210 -0.480580 
-1.296670 15.376440 -2.495510 -5.822386 30.346844 -14.510229 -15.773103 11.375855 5.475395 29.537891 -2.490072 -42.717352 -3.802146 13.909958 48.239498 -0.473584 9.886862 0.645898 0.240990 -0.068130 0.230090 18.003787 -9.638149 2.467717 -11.972938 6.021707 -19.108735 10.472281 -19.041777 59.149085 -1.946672 -10.068453 1.036485 0.035060 -0.070280 0.002030 -2.542928 -1.401247 -9.234005 -5.097746 11.665757 39.174487 0.768882 12.634272 -0.685332 0.479585 9.636425 -27.772963 19.211176 -22.953624 63.780863 15.433620 -13.326610 -26.440400 -23.600872 -40.348277 9.674456 -39.809910 -17.542582 -0.091226 9.403890 -5.266385 -1.960521 -3.530004 2.153147 1.419990 -0.308550 0.390470 -0.013610 22.866506 38.748929 18.959241 44.170661 -5.299726 -19.397759 102.708818 52.703540 36.623785 1.990547 -0.939886 -0.542860 0.600490 0.283200 -0.484490 
